<mxfile host="app.diagrams.net" modified="2021-01-05T16:52:59.888Z" agent="5.0 (X11; Linux x86_64) AppleWebKit/537.36 (KHTML, like Gecko) Chrome/86.0.4240.198 YaBrowser/20.11.3.188 (beta) Yowser/2.5 Safari/537.36" etag="leUVp_Zrgc0BHXTK2TJ5" version="14.1.8" type="github">
  <diagram id="JsutUQx6NK4XxqGc4MJt" name="Page-1">
    <mxGraphModel dx="796" dy="476" grid="1" gridSize="10" guides="1" tooltips="1" connect="1" arrows="1" fold="1" page="1" pageScale="1" pageWidth="413" pageHeight="583" math="0" shadow="0">
      <root>
        <mxCell id="0" />
        <mxCell id="1" parent="0" />
        <mxCell id="PCadB83_jiJ8bg0ljsQ5-5" value="5v jst" style="rounded=0;whiteSpace=wrap;html=1;fontSize=9;" vertex="1" parent="1">
          <mxGeometry x="280" y="508" width="70" height="30" as="geometry" />
        </mxCell>
        <mxCell id="KwUh2jPh4wp6yOu8MJGP-1" value="ШИМ" style="whiteSpace=wrap;html=1;aspect=fixed;" parent="1" vertex="1">
          <mxGeometry x="90" y="250" width="80" height="80" as="geometry" />
        </mxCell>
        <mxCell id="KwUh2jPh4wp6yOu8MJGP-2" value="" style="endArrow=none;html=1;" parent="1" edge="1">
          <mxGeometry width="50" height="50" relative="1" as="geometry">
            <mxPoint x="150" y="270" as="sourcePoint" />
            <mxPoint x="200" y="270" as="targetPoint" />
          </mxGeometry>
        </mxCell>
        <mxCell id="KwUh2jPh4wp6yOu8MJGP-3" value="" style="endArrow=none;html=1;" parent="1" edge="1">
          <mxGeometry width="50" height="50" relative="1" as="geometry">
            <mxPoint x="150" y="280" as="sourcePoint" />
            <mxPoint x="200" y="280" as="targetPoint" />
            <Array as="points">
              <mxPoint x="170" y="280" />
            </Array>
          </mxGeometry>
        </mxCell>
        <mxCell id="KwUh2jPh4wp6yOu8MJGP-4" value="" style="endArrow=none;html=1;" parent="1" edge="1">
          <mxGeometry width="50" height="50" relative="1" as="geometry">
            <mxPoint x="150" y="289.5" as="sourcePoint" />
            <mxPoint x="200" y="289.5" as="targetPoint" />
          </mxGeometry>
        </mxCell>
        <mxCell id="KwUh2jPh4wp6yOu8MJGP-5" value="" style="endArrow=none;html=1;" parent="1" edge="1">
          <mxGeometry width="50" height="50" relative="1" as="geometry">
            <mxPoint x="150" y="300" as="sourcePoint" />
            <mxPoint x="200" y="300" as="targetPoint" />
          </mxGeometry>
        </mxCell>
        <mxCell id="KwUh2jPh4wp6yOu8MJGP-6" value="" style="endArrow=none;html=1;" parent="1" edge="1">
          <mxGeometry width="50" height="50" relative="1" as="geometry">
            <mxPoint x="150" y="310" as="sourcePoint" />
            <mxPoint x="200" y="310" as="targetPoint" />
          </mxGeometry>
        </mxCell>
        <mxCell id="KwUh2jPh4wp6yOu8MJGP-7" value="" style="endArrow=none;html=1;" parent="1" edge="1">
          <mxGeometry width="50" height="50" relative="1" as="geometry">
            <mxPoint x="150" y="320" as="sourcePoint" />
            <mxPoint x="200" y="320" as="targetPoint" />
          </mxGeometry>
        </mxCell>
        <mxCell id="KwUh2jPh4wp6yOu8MJGP-8" value="v+&lt;br style=&quot;font-size: 9px;&quot;&gt;vcc&lt;br style=&quot;font-size: 9px;&quot;&gt;sda&lt;br style=&quot;font-size: 9px;&quot;&gt;scl&lt;br style=&quot;font-size: 9px;&quot;&gt;&lt;br style=&quot;font-size: 9px;&quot;&gt;gnd" style="text;html=1;strokeColor=none;fillColor=none;align=center;verticalAlign=middle;whiteSpace=wrap;rounded=0;fontSize=9;" parent="1" vertex="1">
          <mxGeometry x="140" y="280" width="40" height="20" as="geometry" />
        </mxCell>
        <mxCell id="KwUh2jPh4wp6yOu8MJGP-10" value="jetson" style="rounded=0;whiteSpace=wrap;html=1;fontSize=9;" parent="1" vertex="1">
          <mxGeometry x="640" y="200" width="60" height="210" as="geometry" />
        </mxCell>
        <mxCell id="KwUh2jPh4wp6yOu8MJGP-18" value="" style="endArrow=none;html=1;" parent="1" edge="1">
          <mxGeometry width="50" height="50" relative="1" as="geometry">
            <mxPoint x="680" y="210" as="sourcePoint" />
            <mxPoint x="730" y="210" as="targetPoint" />
          </mxGeometry>
        </mxCell>
        <mxCell id="KwUh2jPh4wp6yOu8MJGP-19" value="" style="endArrow=none;html=1;" parent="1" edge="1">
          <mxGeometry width="50" height="50" relative="1" as="geometry">
            <mxPoint x="680" y="220" as="sourcePoint" />
            <mxPoint x="730" y="220" as="targetPoint" />
            <Array as="points">
              <mxPoint x="700" y="220" />
            </Array>
          </mxGeometry>
        </mxCell>
        <mxCell id="KwUh2jPh4wp6yOu8MJGP-20" value="" style="endArrow=none;html=1;" parent="1" edge="1">
          <mxGeometry width="50" height="50" relative="1" as="geometry">
            <mxPoint x="680" y="229.4999999999999" as="sourcePoint" />
            <mxPoint x="730" y="229.4999999999999" as="targetPoint" />
          </mxGeometry>
        </mxCell>
        <mxCell id="KwUh2jPh4wp6yOu8MJGP-21" value="" style="endArrow=none;html=1;" parent="1" edge="1">
          <mxGeometry width="50" height="50" relative="1" as="geometry">
            <mxPoint x="680" y="240" as="sourcePoint" />
            <mxPoint x="730" y="240" as="targetPoint" />
          </mxGeometry>
        </mxCell>
        <mxCell id="KwUh2jPh4wp6yOu8MJGP-22" value="" style="endArrow=none;html=1;" parent="1" edge="1">
          <mxGeometry width="50" height="50" relative="1" as="geometry">
            <mxPoint x="680" y="250" as="sourcePoint" />
            <mxPoint x="730" y="250" as="targetPoint" />
          </mxGeometry>
        </mxCell>
        <mxCell id="KwUh2jPh4wp6yOu8MJGP-23" value="" style="endArrow=none;html=1;" parent="1" edge="1">
          <mxGeometry width="50" height="50" relative="1" as="geometry">
            <mxPoint x="680" y="260" as="sourcePoint" />
            <mxPoint x="730" y="260" as="targetPoint" />
          </mxGeometry>
        </mxCell>
        <mxCell id="KwUh2jPh4wp6yOu8MJGP-24" value="5v&lt;br style=&quot;font-size: 9px&quot;&gt;5v&lt;br style=&quot;font-size: 9px&quot;&gt;gnd&lt;br style=&quot;font-size: 9px&quot;&gt;&lt;br style=&quot;font-size: 9px&quot;&gt;&lt;br style=&quot;font-size: 9px&quot;&gt;i2s&lt;br&gt;gnd&lt;br&gt;&lt;br&gt;&lt;br&gt;&lt;br&gt;&lt;br&gt;&lt;br&gt;&lt;br&gt;scl&lt;br&gt;&lt;br&gt;&lt;br&gt;&lt;br&gt;&lt;br&gt;i2s" style="text;html=1;strokeColor=none;fillColor=none;align=center;verticalAlign=middle;whiteSpace=wrap;rounded=0;fontSize=9;" parent="1" vertex="1">
          <mxGeometry x="670" y="284" width="40" height="20" as="geometry" />
        </mxCell>
        <mxCell id="KwUh2jPh4wp6yOu8MJGP-25" value="" style="endArrow=none;html=1;" parent="1" edge="1">
          <mxGeometry width="50" height="50" relative="1" as="geometry">
            <mxPoint x="610.0000000000002" y="210" as="sourcePoint" />
            <mxPoint x="660" y="210" as="targetPoint" />
          </mxGeometry>
        </mxCell>
        <mxCell id="KwUh2jPh4wp6yOu8MJGP-26" value="" style="endArrow=none;html=1;" parent="1" edge="1">
          <mxGeometry width="50" height="50" relative="1" as="geometry">
            <mxPoint x="610.0000000000002" y="220" as="sourcePoint" />
            <mxPoint x="660" y="220" as="targetPoint" />
            <Array as="points">
              <mxPoint x="630" y="220" />
            </Array>
          </mxGeometry>
        </mxCell>
        <mxCell id="KwUh2jPh4wp6yOu8MJGP-27" value="" style="endArrow=none;html=1;" parent="1" edge="1">
          <mxGeometry width="50" height="50" relative="1" as="geometry">
            <mxPoint x="610.0000000000002" y="229.4999999999999" as="sourcePoint" />
            <mxPoint x="660" y="229.4999999999999" as="targetPoint" />
          </mxGeometry>
        </mxCell>
        <mxCell id="KwUh2jPh4wp6yOu8MJGP-28" value="" style="endArrow=none;html=1;" parent="1" edge="1">
          <mxGeometry width="50" height="50" relative="1" as="geometry">
            <mxPoint x="610.0000000000002" y="240" as="sourcePoint" />
            <mxPoint x="660" y="240" as="targetPoint" />
          </mxGeometry>
        </mxCell>
        <mxCell id="KwUh2jPh4wp6yOu8MJGP-29" value="" style="endArrow=none;html=1;" parent="1" edge="1">
          <mxGeometry width="50" height="50" relative="1" as="geometry">
            <mxPoint x="610.0000000000002" y="250" as="sourcePoint" />
            <mxPoint x="660" y="250" as="targetPoint" />
          </mxGeometry>
        </mxCell>
        <mxCell id="KwUh2jPh4wp6yOu8MJGP-30" value="" style="endArrow=none;html=1;" parent="1" edge="1">
          <mxGeometry width="50" height="50" relative="1" as="geometry">
            <mxPoint x="610.0000000000002" y="260" as="sourcePoint" />
            <mxPoint x="660" y="260" as="targetPoint" />
          </mxGeometry>
        </mxCell>
        <mxCell id="KwUh2jPh4wp6yOu8MJGP-31" value="3.3v&lt;br style=&quot;font-size: 9px&quot;&gt;sda&lt;br style=&quot;font-size: 9px&quot;&gt;scl&lt;br style=&quot;font-size: 9px&quot;&gt;&lt;br style=&quot;font-size: 9px&quot;&gt;gnd&lt;br&gt;&lt;br&gt;&lt;br&gt;&lt;br&gt;3.3v&lt;br&gt;&lt;br&gt;&lt;br&gt;&lt;br&gt;&lt;br&gt;sda&lt;br&gt;&lt;br&gt;&lt;br&gt;&lt;br&gt;i2s&lt;br&gt;&lt;br&gt;gnd" style="text;html=1;strokeColor=none;fillColor=none;align=center;verticalAlign=middle;whiteSpace=wrap;rounded=0;fontSize=9;" parent="1" vertex="1">
          <mxGeometry x="630" y="288" width="40" height="20" as="geometry" />
        </mxCell>
        <mxCell id="KwUh2jPh4wp6yOu8MJGP-35" value="" style="endArrow=none;dashed=1;html=1;fontSize=9;" parent="1" edge="1">
          <mxGeometry width="50" height="50" relative="1" as="geometry">
            <mxPoint x="200" y="280" as="sourcePoint" />
            <mxPoint x="610" y="290" as="targetPoint" />
          </mxGeometry>
        </mxCell>
        <mxCell id="KwUh2jPh4wp6yOu8MJGP-36" value="" style="endArrow=none;dashed=1;html=1;fontSize=9;" parent="1" edge="1">
          <mxGeometry width="50" height="50" relative="1" as="geometry">
            <mxPoint x="200" y="290" as="sourcePoint" />
            <mxPoint x="610" y="340" as="targetPoint" />
          </mxGeometry>
        </mxCell>
        <mxCell id="KwUh2jPh4wp6yOu8MJGP-37" value="" style="endArrow=none;dashed=1;html=1;fontSize=9;" parent="1" edge="1">
          <mxGeometry width="50" height="50" relative="1" as="geometry">
            <mxPoint x="200" y="300" as="sourcePoint" />
            <mxPoint x="730" y="340" as="targetPoint" />
          </mxGeometry>
        </mxCell>
        <mxCell id="KwUh2jPh4wp6yOu8MJGP-38" value="" style="endArrow=none;dashed=1;html=1;fontSize=9;" parent="1" edge="1">
          <mxGeometry width="50" height="50" relative="1" as="geometry">
            <mxPoint x="200" y="320" as="sourcePoint" />
            <mxPoint x="730" y="270" as="targetPoint" />
          </mxGeometry>
        </mxCell>
        <mxCell id="KwUh2jPh4wp6yOu8MJGP-39" value="hall&lt;br&gt;sensor" style="rounded=0;whiteSpace=wrap;html=1;fontSize=9;" parent="1" vertex="1">
          <mxGeometry x="240" y="349.67" width="70" height="40" as="geometry" />
        </mxCell>
        <mxCell id="KwUh2jPh4wp6yOu8MJGP-44" value="" style="endArrow=none;html=1;" parent="1" edge="1">
          <mxGeometry width="50" height="50" relative="1" as="geometry">
            <mxPoint x="290" y="360.75" as="sourcePoint" />
            <mxPoint x="340" y="360.75" as="targetPoint" />
          </mxGeometry>
        </mxCell>
        <mxCell id="KwUh2jPh4wp6yOu8MJGP-45" value="" style="endArrow=none;html=1;" parent="1" edge="1">
          <mxGeometry width="50" height="50" relative="1" as="geometry">
            <mxPoint x="290" y="370.75" as="sourcePoint" />
            <mxPoint x="340" y="370.75" as="targetPoint" />
            <Array as="points">
              <mxPoint x="310" y="370.75" />
            </Array>
          </mxGeometry>
        </mxCell>
        <mxCell id="KwUh2jPh4wp6yOu8MJGP-46" value="" style="endArrow=none;html=1;" parent="1" edge="1">
          <mxGeometry width="50" height="50" relative="1" as="geometry">
            <mxPoint x="290" y="380.25" as="sourcePoint" />
            <mxPoint x="340" y="380.25" as="targetPoint" />
          </mxGeometry>
        </mxCell>
        <mxCell id="KwUh2jPh4wp6yOu8MJGP-47" value="signal&lt;br style=&quot;font-size: 9px&quot;&gt;5v&lt;br style=&quot;font-size: 9px&quot;&gt;gnd" style="text;html=1;strokeColor=none;fillColor=none;align=center;verticalAlign=middle;whiteSpace=wrap;rounded=0;fontSize=9;" parent="1" vertex="1">
          <mxGeometry x="280" y="355.67" width="40" height="20" as="geometry" />
        </mxCell>
        <mxCell id="KwUh2jPh4wp6yOu8MJGP-48" value="LLC" style="rounded=0;whiteSpace=wrap;html=1;fontSize=9;" parent="1" vertex="1">
          <mxGeometry x="434" y="349.66999999999996" width="66" height="80" as="geometry" />
        </mxCell>
        <mxCell id="KwUh2jPh4wp6yOu8MJGP-49" value="" style="endArrow=none;html=1;" parent="1" edge="1">
          <mxGeometry width="50" height="50" relative="1" as="geometry">
            <mxPoint x="480" y="369.66999999999996" as="sourcePoint" />
            <mxPoint x="530" y="369.66999999999996" as="targetPoint" />
          </mxGeometry>
        </mxCell>
        <mxCell id="KwUh2jPh4wp6yOu8MJGP-50" value="" style="endArrow=none;html=1;" parent="1" edge="1">
          <mxGeometry width="50" height="50" relative="1" as="geometry">
            <mxPoint x="480" y="379.66999999999996" as="sourcePoint" />
            <mxPoint x="530" y="379.66999999999996" as="targetPoint" />
            <Array as="points">
              <mxPoint x="500" y="379.66999999999996" />
            </Array>
          </mxGeometry>
        </mxCell>
        <mxCell id="KwUh2jPh4wp6yOu8MJGP-51" value="" style="endArrow=none;html=1;" parent="1" edge="1">
          <mxGeometry width="50" height="50" relative="1" as="geometry">
            <mxPoint x="480" y="389.16999999999985" as="sourcePoint" />
            <mxPoint x="530" y="389.16999999999985" as="targetPoint" />
          </mxGeometry>
        </mxCell>
        <mxCell id="KwUh2jPh4wp6yOu8MJGP-52" value="" style="endArrow=none;html=1;" parent="1" edge="1">
          <mxGeometry width="50" height="50" relative="1" as="geometry">
            <mxPoint x="480" y="399.66999999999996" as="sourcePoint" />
            <mxPoint x="530" y="399.66999999999996" as="targetPoint" />
          </mxGeometry>
        </mxCell>
        <mxCell id="KwUh2jPh4wp6yOu8MJGP-53" value="" style="endArrow=none;html=1;" parent="1" edge="1">
          <mxGeometry width="50" height="50" relative="1" as="geometry">
            <mxPoint x="480" y="409.66999999999996" as="sourcePoint" />
            <mxPoint x="530" y="409.66999999999996" as="targetPoint" />
          </mxGeometry>
        </mxCell>
        <mxCell id="KwUh2jPh4wp6yOu8MJGP-54" value="" style="endArrow=none;html=1;" parent="1" edge="1">
          <mxGeometry width="50" height="50" relative="1" as="geometry">
            <mxPoint x="480" y="419.66999999999996" as="sourcePoint" />
            <mxPoint x="530" y="419.66999999999996" as="targetPoint" />
          </mxGeometry>
        </mxCell>
        <mxCell id="KwUh2jPh4wp6yOu8MJGP-55" value="&lt;br style=&quot;font-size: 9px&quot;&gt;&lt;br style=&quot;font-size: 9px&quot;&gt;s1&lt;br style=&quot;font-size: 9px&quot;&gt;s0&lt;br&gt;&lt;br&gt;&lt;br style=&quot;font-size: 9px&quot;&gt;" style="text;html=1;strokeColor=none;fillColor=none;align=center;verticalAlign=middle;whiteSpace=wrap;rounded=0;fontSize=9;" parent="1" vertex="1">
          <mxGeometry x="470" y="379.66999999999996" width="40" height="20" as="geometry" />
        </mxCell>
        <mxCell id="KwUh2jPh4wp6yOu8MJGP-56" value="" style="endArrow=none;html=1;" parent="1" edge="1">
          <mxGeometry width="50" height="50" relative="1" as="geometry">
            <mxPoint x="404.0000000000002" y="369.66999999999996" as="sourcePoint" />
            <mxPoint x="454" y="369.66999999999996" as="targetPoint" />
          </mxGeometry>
        </mxCell>
        <mxCell id="KwUh2jPh4wp6yOu8MJGP-57" value="" style="endArrow=none;html=1;" parent="1" edge="1">
          <mxGeometry width="50" height="50" relative="1" as="geometry">
            <mxPoint x="404.0000000000002" y="379.66999999999996" as="sourcePoint" />
            <mxPoint x="454" y="379.66999999999996" as="targetPoint" />
            <Array as="points">
              <mxPoint x="424" y="379.66999999999996" />
            </Array>
          </mxGeometry>
        </mxCell>
        <mxCell id="KwUh2jPh4wp6yOu8MJGP-58" value="" style="endArrow=none;html=1;" parent="1" edge="1">
          <mxGeometry width="50" height="50" relative="1" as="geometry">
            <mxPoint x="404.0000000000002" y="389.16999999999985" as="sourcePoint" />
            <mxPoint x="454" y="389.16999999999985" as="targetPoint" />
          </mxGeometry>
        </mxCell>
        <mxCell id="KwUh2jPh4wp6yOu8MJGP-59" value="" style="endArrow=none;html=1;" parent="1" edge="1">
          <mxGeometry width="50" height="50" relative="1" as="geometry">
            <mxPoint x="404.0000000000002" y="399.66999999999996" as="sourcePoint" />
            <mxPoint x="454" y="399.66999999999996" as="targetPoint" />
          </mxGeometry>
        </mxCell>
        <mxCell id="KwUh2jPh4wp6yOu8MJGP-60" value="" style="endArrow=none;html=1;" parent="1" edge="1">
          <mxGeometry width="50" height="50" relative="1" as="geometry">
            <mxPoint x="404.0000000000002" y="409.66999999999996" as="sourcePoint" />
            <mxPoint x="454" y="409.66999999999996" as="targetPoint" />
          </mxGeometry>
        </mxCell>
        <mxCell id="KwUh2jPh4wp6yOu8MJGP-61" value="" style="endArrow=none;html=1;" parent="1" edge="1">
          <mxGeometry width="50" height="50" relative="1" as="geometry">
            <mxPoint x="404.0000000000002" y="419.66999999999996" as="sourcePoint" />
            <mxPoint x="454" y="419.66999999999996" as="targetPoint" />
          </mxGeometry>
        </mxCell>
        <mxCell id="KwUh2jPh4wp6yOu8MJGP-62" value="&lt;br&gt;&lt;br&gt;s1&lt;br&gt;s0&lt;br&gt;5v&lt;br&gt;gnd" style="text;html=1;strokeColor=none;fillColor=none;align=center;verticalAlign=middle;whiteSpace=wrap;rounded=0;fontSize=9;" parent="1" vertex="1">
          <mxGeometry x="424" y="379.99999999999994" width="40" height="20" as="geometry" />
        </mxCell>
        <mxCell id="KwUh2jPh4wp6yOu8MJGP-63" value="hall&lt;br&gt;sensor" style="rounded=0;whiteSpace=wrap;html=1;fontSize=9;" parent="1" vertex="1">
          <mxGeometry x="240" y="410" width="70" height="40" as="geometry" />
        </mxCell>
        <mxCell id="KwUh2jPh4wp6yOu8MJGP-64" value="" style="endArrow=none;html=1;" parent="1" edge="1">
          <mxGeometry width="50" height="50" relative="1" as="geometry">
            <mxPoint x="290" y="421.0799999999999" as="sourcePoint" />
            <mxPoint x="340" y="421.0799999999999" as="targetPoint" />
          </mxGeometry>
        </mxCell>
        <mxCell id="KwUh2jPh4wp6yOu8MJGP-65" value="" style="endArrow=none;html=1;" parent="1" edge="1">
          <mxGeometry width="50" height="50" relative="1" as="geometry">
            <mxPoint x="290" y="431.0799999999999" as="sourcePoint" />
            <mxPoint x="340" y="431.0799999999999" as="targetPoint" />
            <Array as="points">
              <mxPoint x="310" y="431.08" />
            </Array>
          </mxGeometry>
        </mxCell>
        <mxCell id="KwUh2jPh4wp6yOu8MJGP-66" value="" style="endArrow=none;html=1;" parent="1" edge="1">
          <mxGeometry width="50" height="50" relative="1" as="geometry">
            <mxPoint x="290" y="440.5799999999999" as="sourcePoint" />
            <mxPoint x="340" y="440.5799999999999" as="targetPoint" />
          </mxGeometry>
        </mxCell>
        <mxCell id="KwUh2jPh4wp6yOu8MJGP-67" value="signal&lt;br style=&quot;font-size: 9px&quot;&gt;5v&lt;br style=&quot;font-size: 9px&quot;&gt;gnd" style="text;html=1;strokeColor=none;fillColor=none;align=center;verticalAlign=middle;whiteSpace=wrap;rounded=0;fontSize=9;" parent="1" vertex="1">
          <mxGeometry x="280" y="416" width="40" height="20" as="geometry" />
        </mxCell>
        <mxCell id="KwUh2jPh4wp6yOu8MJGP-68" value="" style="endArrow=none;dashed=1;html=1;fontSize=9;" parent="1" edge="1">
          <mxGeometry width="50" height="50" relative="1" as="geometry">
            <mxPoint x="340" y="440" as="sourcePoint" />
            <mxPoint x="410" y="420" as="targetPoint" />
          </mxGeometry>
        </mxCell>
        <mxCell id="KwUh2jPh4wp6yOu8MJGP-69" value="" style="endArrow=none;dashed=1;html=1;fontSize=9;" parent="1" edge="1">
          <mxGeometry width="50" height="50" relative="1" as="geometry">
            <mxPoint x="410" y="410" as="sourcePoint" />
            <mxPoint x="340" y="430" as="targetPoint" />
          </mxGeometry>
        </mxCell>
        <mxCell id="KwUh2jPh4wp6yOu8MJGP-70" value="" style="endArrow=none;dashed=1;html=1;fontSize=9;" parent="1" edge="1">
          <mxGeometry width="50" height="50" relative="1" as="geometry">
            <mxPoint x="410" y="400" as="sourcePoint" />
            <mxPoint x="340" y="420" as="targetPoint" />
          </mxGeometry>
        </mxCell>
        <mxCell id="KwUh2jPh4wp6yOu8MJGP-71" value="" style="endArrow=none;dashed=1;html=1;fontSize=9;" parent="1" edge="1">
          <mxGeometry width="50" height="50" relative="1" as="geometry">
            <mxPoint x="410" y="420" as="sourcePoint" />
            <mxPoint x="340" y="380" as="targetPoint" />
          </mxGeometry>
        </mxCell>
        <mxCell id="KwUh2jPh4wp6yOu8MJGP-72" value="" style="endArrow=none;dashed=1;html=1;fontSize=9;" parent="1" edge="1">
          <mxGeometry width="50" height="50" relative="1" as="geometry">
            <mxPoint x="410" y="410" as="sourcePoint" />
            <mxPoint x="340" y="370" as="targetPoint" />
          </mxGeometry>
        </mxCell>
        <mxCell id="KwUh2jPh4wp6yOu8MJGP-73" value="" style="endArrow=none;dashed=1;html=1;fontSize=9;" parent="1" edge="1">
          <mxGeometry width="50" height="50" relative="1" as="geometry">
            <mxPoint x="410" y="390" as="sourcePoint" />
            <mxPoint x="340" y="360" as="targetPoint" />
          </mxGeometry>
        </mxCell>
        <mxCell id="KwUh2jPh4wp6yOu8MJGP-74" value="" style="endArrow=none;html=1;" parent="1" edge="1">
          <mxGeometry width="50" height="50" relative="1" as="geometry">
            <mxPoint x="680" y="270" as="sourcePoint" />
            <mxPoint x="730" y="270" as="targetPoint" />
          </mxGeometry>
        </mxCell>
        <mxCell id="KwUh2jPh4wp6yOu8MJGP-75" value="" style="endArrow=none;html=1;" parent="1" edge="1">
          <mxGeometry width="50" height="50" relative="1" as="geometry">
            <mxPoint x="680" y="280" as="sourcePoint" />
            <mxPoint x="730" y="280" as="targetPoint" />
            <Array as="points">
              <mxPoint x="700" y="280" />
            </Array>
          </mxGeometry>
        </mxCell>
        <mxCell id="KwUh2jPh4wp6yOu8MJGP-76" value="" style="endArrow=none;html=1;" parent="1" edge="1">
          <mxGeometry width="50" height="50" relative="1" as="geometry">
            <mxPoint x="680" y="289.4999999999999" as="sourcePoint" />
            <mxPoint x="730" y="289.4999999999999" as="targetPoint" />
          </mxGeometry>
        </mxCell>
        <mxCell id="KwUh2jPh4wp6yOu8MJGP-77" value="" style="endArrow=none;html=1;" parent="1" edge="1">
          <mxGeometry width="50" height="50" relative="1" as="geometry">
            <mxPoint x="680" y="300" as="sourcePoint" />
            <mxPoint x="730" y="300" as="targetPoint" />
          </mxGeometry>
        </mxCell>
        <mxCell id="KwUh2jPh4wp6yOu8MJGP-78" value="" style="endArrow=none;html=1;" parent="1" edge="1">
          <mxGeometry width="50" height="50" relative="1" as="geometry">
            <mxPoint x="680" y="310" as="sourcePoint" />
            <mxPoint x="730" y="310" as="targetPoint" />
          </mxGeometry>
        </mxCell>
        <mxCell id="KwUh2jPh4wp6yOu8MJGP-79" value="" style="endArrow=none;html=1;" parent="1" edge="1">
          <mxGeometry width="50" height="50" relative="1" as="geometry">
            <mxPoint x="680" y="320" as="sourcePoint" />
            <mxPoint x="730" y="320" as="targetPoint" />
          </mxGeometry>
        </mxCell>
        <mxCell id="KwUh2jPh4wp6yOu8MJGP-80" value="" style="endArrow=none;html=1;" parent="1" edge="1">
          <mxGeometry width="50" height="50" relative="1" as="geometry">
            <mxPoint x="610.0000000000002" y="270" as="sourcePoint" />
            <mxPoint x="660" y="270" as="targetPoint" />
          </mxGeometry>
        </mxCell>
        <mxCell id="KwUh2jPh4wp6yOu8MJGP-81" value="" style="endArrow=none;html=1;" parent="1" edge="1">
          <mxGeometry width="50" height="50" relative="1" as="geometry">
            <mxPoint x="610.0000000000002" y="280" as="sourcePoint" />
            <mxPoint x="660" y="280" as="targetPoint" />
            <Array as="points">
              <mxPoint x="630" y="280" />
            </Array>
          </mxGeometry>
        </mxCell>
        <mxCell id="KwUh2jPh4wp6yOu8MJGP-82" value="" style="endArrow=none;html=1;" parent="1" edge="1">
          <mxGeometry width="50" height="50" relative="1" as="geometry">
            <mxPoint x="610.0000000000002" y="289.4999999999999" as="sourcePoint" />
            <mxPoint x="660" y="289.4999999999999" as="targetPoint" />
          </mxGeometry>
        </mxCell>
        <mxCell id="KwUh2jPh4wp6yOu8MJGP-83" value="" style="endArrow=none;html=1;" parent="1" edge="1">
          <mxGeometry width="50" height="50" relative="1" as="geometry">
            <mxPoint x="610.0000000000002" y="300" as="sourcePoint" />
            <mxPoint x="660" y="300" as="targetPoint" />
          </mxGeometry>
        </mxCell>
        <mxCell id="KwUh2jPh4wp6yOu8MJGP-84" value="" style="endArrow=none;html=1;" parent="1" edge="1">
          <mxGeometry width="50" height="50" relative="1" as="geometry">
            <mxPoint x="610.0000000000002" y="310" as="sourcePoint" />
            <mxPoint x="660" y="310" as="targetPoint" />
          </mxGeometry>
        </mxCell>
        <mxCell id="KwUh2jPh4wp6yOu8MJGP-85" value="" style="endArrow=none;html=1;" parent="1" edge="1">
          <mxGeometry width="50" height="50" relative="1" as="geometry">
            <mxPoint x="610.0000000000002" y="320" as="sourcePoint" />
            <mxPoint x="660" y="320" as="targetPoint" />
          </mxGeometry>
        </mxCell>
        <mxCell id="KwUh2jPh4wp6yOu8MJGP-86" value="" style="endArrow=none;html=1;" parent="1" edge="1">
          <mxGeometry width="50" height="50" relative="1" as="geometry">
            <mxPoint x="680" y="330" as="sourcePoint" />
            <mxPoint x="730" y="330" as="targetPoint" />
          </mxGeometry>
        </mxCell>
        <mxCell id="KwUh2jPh4wp6yOu8MJGP-87" value="" style="endArrow=none;html=1;" parent="1" edge="1">
          <mxGeometry width="50" height="50" relative="1" as="geometry">
            <mxPoint x="680" y="340" as="sourcePoint" />
            <mxPoint x="730" y="340" as="targetPoint" />
            <Array as="points">
              <mxPoint x="700" y="340" />
            </Array>
          </mxGeometry>
        </mxCell>
        <mxCell id="KwUh2jPh4wp6yOu8MJGP-88" value="" style="endArrow=none;html=1;" parent="1" edge="1">
          <mxGeometry width="50" height="50" relative="1" as="geometry">
            <mxPoint x="680" y="349.4999999999999" as="sourcePoint" />
            <mxPoint x="730" y="349.4999999999999" as="targetPoint" />
          </mxGeometry>
        </mxCell>
        <mxCell id="KwUh2jPh4wp6yOu8MJGP-89" value="" style="endArrow=none;html=1;" parent="1" edge="1">
          <mxGeometry width="50" height="50" relative="1" as="geometry">
            <mxPoint x="680" y="360" as="sourcePoint" />
            <mxPoint x="730" y="360" as="targetPoint" />
          </mxGeometry>
        </mxCell>
        <mxCell id="KwUh2jPh4wp6yOu8MJGP-90" value="" style="endArrow=none;html=1;" parent="1" edge="1">
          <mxGeometry width="50" height="50" relative="1" as="geometry">
            <mxPoint x="680" y="370" as="sourcePoint" />
            <mxPoint x="730" y="370" as="targetPoint" />
          </mxGeometry>
        </mxCell>
        <mxCell id="KwUh2jPh4wp6yOu8MJGP-91" value="" style="endArrow=none;html=1;" parent="1" edge="1">
          <mxGeometry width="50" height="50" relative="1" as="geometry">
            <mxPoint x="680" y="380" as="sourcePoint" />
            <mxPoint x="730" y="380" as="targetPoint" />
          </mxGeometry>
        </mxCell>
        <mxCell id="KwUh2jPh4wp6yOu8MJGP-92" value="" style="endArrow=none;html=1;" parent="1" edge="1">
          <mxGeometry width="50" height="50" relative="1" as="geometry">
            <mxPoint x="610.0000000000002" y="330" as="sourcePoint" />
            <mxPoint x="660" y="330" as="targetPoint" />
          </mxGeometry>
        </mxCell>
        <mxCell id="KwUh2jPh4wp6yOu8MJGP-93" value="" style="endArrow=none;html=1;" parent="1" edge="1">
          <mxGeometry width="50" height="50" relative="1" as="geometry">
            <mxPoint x="610.0000000000002" y="340" as="sourcePoint" />
            <mxPoint x="660" y="340" as="targetPoint" />
            <Array as="points">
              <mxPoint x="630" y="340" />
            </Array>
          </mxGeometry>
        </mxCell>
        <mxCell id="KwUh2jPh4wp6yOu8MJGP-94" value="" style="endArrow=none;html=1;" parent="1" edge="1">
          <mxGeometry width="50" height="50" relative="1" as="geometry">
            <mxPoint x="610.0000000000002" y="349.4999999999999" as="sourcePoint" />
            <mxPoint x="660" y="349.4999999999999" as="targetPoint" />
          </mxGeometry>
        </mxCell>
        <mxCell id="KwUh2jPh4wp6yOu8MJGP-95" value="" style="endArrow=none;html=1;" parent="1" edge="1">
          <mxGeometry width="50" height="50" relative="1" as="geometry">
            <mxPoint x="610.0000000000002" y="360" as="sourcePoint" />
            <mxPoint x="660" y="360" as="targetPoint" />
          </mxGeometry>
        </mxCell>
        <mxCell id="KwUh2jPh4wp6yOu8MJGP-96" value="" style="endArrow=none;html=1;" parent="1" edge="1">
          <mxGeometry width="50" height="50" relative="1" as="geometry">
            <mxPoint x="610.0000000000002" y="370" as="sourcePoint" />
            <mxPoint x="660" y="370" as="targetPoint" />
          </mxGeometry>
        </mxCell>
        <mxCell id="KwUh2jPh4wp6yOu8MJGP-97" value="" style="endArrow=none;html=1;" parent="1" edge="1">
          <mxGeometry width="50" height="50" relative="1" as="geometry">
            <mxPoint x="610.0000000000002" y="380" as="sourcePoint" />
            <mxPoint x="660" y="380" as="targetPoint" />
          </mxGeometry>
        </mxCell>
        <mxCell id="KwUh2jPh4wp6yOu8MJGP-98" value="" style="endArrow=none;html=1;" parent="1" edge="1">
          <mxGeometry width="50" height="50" relative="1" as="geometry">
            <mxPoint x="680" y="389.34" as="sourcePoint" />
            <mxPoint x="730" y="389.34" as="targetPoint" />
          </mxGeometry>
        </mxCell>
        <mxCell id="KwUh2jPh4wp6yOu8MJGP-99" value="" style="endArrow=none;html=1;" parent="1" edge="1">
          <mxGeometry width="50" height="50" relative="1" as="geometry">
            <mxPoint x="680" y="399.34" as="sourcePoint" />
            <mxPoint x="730" y="399.34" as="targetPoint" />
          </mxGeometry>
        </mxCell>
        <mxCell id="KwUh2jPh4wp6yOu8MJGP-100" value="" style="endArrow=none;html=1;" parent="1" edge="1">
          <mxGeometry width="50" height="50" relative="1" as="geometry">
            <mxPoint x="610.0000000000002" y="389.34" as="sourcePoint" />
            <mxPoint x="660" y="389.34" as="targetPoint" />
          </mxGeometry>
        </mxCell>
        <mxCell id="KwUh2jPh4wp6yOu8MJGP-101" value="" style="endArrow=none;html=1;" parent="1" edge="1">
          <mxGeometry width="50" height="50" relative="1" as="geometry">
            <mxPoint x="610.0000000000002" y="399.34" as="sourcePoint" />
            <mxPoint x="660" y="399.34" as="targetPoint" />
          </mxGeometry>
        </mxCell>
        <mxCell id="KwUh2jPh4wp6yOu8MJGP-104" value="" style="endArrow=none;dashed=1;html=1;fontSize=9;" parent="1" edge="1">
          <mxGeometry width="50" height="50" relative="1" as="geometry">
            <mxPoint x="530" y="400" as="sourcePoint" />
            <mxPoint x="730" y="390" as="targetPoint" />
          </mxGeometry>
        </mxCell>
        <mxCell id="KwUh2jPh4wp6yOu8MJGP-105" value="" style="endArrow=none;dashed=1;html=1;fontSize=9;" parent="1" edge="1">
          <mxGeometry width="50" height="50" relative="1" as="geometry">
            <mxPoint x="530" y="390" as="sourcePoint" />
            <mxPoint x="610" y="380" as="targetPoint" />
          </mxGeometry>
        </mxCell>
        <mxCell id="KwUh2jPh4wp6yOu8MJGP-106" value="" style="endArrow=none;dashed=1;html=1;fontSize=9;" parent="1" edge="1">
          <mxGeometry width="50" height="50" relative="1" as="geometry">
            <mxPoint x="410" y="410" as="sourcePoint" />
            <mxPoint x="340" y="480" as="targetPoint" />
          </mxGeometry>
        </mxCell>
        <mxCell id="KwUh2jPh4wp6yOu8MJGP-107" value="" style="endArrow=none;dashed=1;html=1;fontSize=9;" parent="1" edge="1">
          <mxGeometry width="50" height="50" relative="1" as="geometry">
            <mxPoint x="410" y="420" as="sourcePoint" />
            <mxPoint x="340" y="490" as="targetPoint" />
          </mxGeometry>
        </mxCell>
        <mxCell id="KwUh2jPh4wp6yOu8MJGP-108" value="IMU" style="whiteSpace=wrap;html=1;aspect=fixed;" parent="1" vertex="1">
          <mxGeometry x="433" y="490" width="100" height="100" as="geometry" />
        </mxCell>
        <mxCell id="KwUh2jPh4wp6yOu8MJGP-109" value="" style="endArrow=none;html=1;" parent="1" edge="1">
          <mxGeometry width="50" height="50" relative="1" as="geometry">
            <mxPoint x="509" y="510" as="sourcePoint" />
            <mxPoint x="559" y="510" as="targetPoint" />
          </mxGeometry>
        </mxCell>
        <mxCell id="KwUh2jPh4wp6yOu8MJGP-110" value="" style="endArrow=none;html=1;" parent="1" edge="1">
          <mxGeometry width="50" height="50" relative="1" as="geometry">
            <mxPoint x="509" y="520" as="sourcePoint" />
            <mxPoint x="559" y="520" as="targetPoint" />
            <Array as="points">
              <mxPoint x="529" y="520" />
            </Array>
          </mxGeometry>
        </mxCell>
        <mxCell id="KwUh2jPh4wp6yOu8MJGP-111" value="" style="endArrow=none;html=1;" parent="1" edge="1">
          <mxGeometry width="50" height="50" relative="1" as="geometry">
            <mxPoint x="509" y="529.5" as="sourcePoint" />
            <mxPoint x="559" y="529.5" as="targetPoint" />
          </mxGeometry>
        </mxCell>
        <mxCell id="KwUh2jPh4wp6yOu8MJGP-112" value="" style="endArrow=none;html=1;" parent="1" edge="1">
          <mxGeometry width="50" height="50" relative="1" as="geometry">
            <mxPoint x="509" y="540" as="sourcePoint" />
            <mxPoint x="559" y="540" as="targetPoint" />
          </mxGeometry>
        </mxCell>
        <mxCell id="KwUh2jPh4wp6yOu8MJGP-113" value="" style="endArrow=none;html=1;" parent="1" edge="1">
          <mxGeometry width="50" height="50" relative="1" as="geometry">
            <mxPoint x="509" y="550" as="sourcePoint" />
            <mxPoint x="559" y="550" as="targetPoint" />
          </mxGeometry>
        </mxCell>
        <mxCell id="KwUh2jPh4wp6yOu8MJGP-114" value="" style="endArrow=none;html=1;" parent="1" edge="1">
          <mxGeometry width="50" height="50" relative="1" as="geometry">
            <mxPoint x="509" y="560" as="sourcePoint" />
            <mxPoint x="559" y="560" as="targetPoint" />
          </mxGeometry>
        </mxCell>
        <mxCell id="KwUh2jPh4wp6yOu8MJGP-115" value="5v&lt;br style=&quot;font-size: 9px&quot;&gt;gnd&lt;br style=&quot;font-size: 9px&quot;&gt;scl&lt;br style=&quot;font-size: 9px&quot;&gt;sda&lt;br style=&quot;font-size: 9px&quot;&gt;&lt;br style=&quot;font-size: 9px&quot;&gt;" style="text;html=1;strokeColor=none;fillColor=none;align=center;verticalAlign=middle;whiteSpace=wrap;rounded=0;fontSize=9;" parent="1" vertex="1">
          <mxGeometry x="499" y="514" width="40" height="20" as="geometry" />
        </mxCell>
        <mxCell id="KwUh2jPh4wp6yOu8MJGP-116" value="" style="endArrow=none;html=1;" parent="1" edge="1">
          <mxGeometry width="50" height="50" relative="1" as="geometry">
            <mxPoint x="509" y="570" as="sourcePoint" />
            <mxPoint x="559" y="570" as="targetPoint" />
          </mxGeometry>
        </mxCell>
        <mxCell id="KwUh2jPh4wp6yOu8MJGP-117" value="" style="endArrow=none;html=1;" parent="1" edge="1">
          <mxGeometry width="50" height="50" relative="1" as="geometry">
            <mxPoint x="509" y="580" as="sourcePoint" />
            <mxPoint x="559" y="580" as="targetPoint" />
          </mxGeometry>
        </mxCell>
        <mxCell id="KwUh2jPh4wp6yOu8MJGP-119" value="" style="endArrow=none;dashed=1;html=1;fontSize=9;" parent="1" edge="1">
          <mxGeometry width="50" height="50" relative="1" as="geometry">
            <mxPoint x="380" y="520" as="sourcePoint" />
            <mxPoint x="560" y="510" as="targetPoint" />
          </mxGeometry>
        </mxCell>
        <mxCell id="KwUh2jPh4wp6yOu8MJGP-120" value="" style="endArrow=none;dashed=1;html=1;fontSize=9;" parent="1" edge="1">
          <mxGeometry width="50" height="50" relative="1" as="geometry">
            <mxPoint x="560" y="520" as="sourcePoint" />
            <mxPoint x="380" y="530" as="targetPoint" />
          </mxGeometry>
        </mxCell>
        <mxCell id="KwUh2jPh4wp6yOu8MJGP-121" value="" style="endArrow=none;dashed=1;html=1;fontSize=9;" parent="1" edge="1">
          <mxGeometry width="50" height="50" relative="1" as="geometry">
            <mxPoint x="560" y="530" as="sourcePoint" />
            <mxPoint x="730" y="340" as="targetPoint" />
          </mxGeometry>
        </mxCell>
        <mxCell id="KwUh2jPh4wp6yOu8MJGP-122" value="" style="endArrow=none;dashed=1;html=1;fontSize=9;" parent="1" edge="1">
          <mxGeometry width="50" height="50" relative="1" as="geometry">
            <mxPoint x="610" y="340" as="sourcePoint" />
            <mxPoint x="560" y="540" as="targetPoint" />
          </mxGeometry>
        </mxCell>
        <mxCell id="1xQy0t3dI2rBJtauFKF1-2" value="" style="endArrow=none;html=1;" parent="1" edge="1">
          <mxGeometry width="50" height="50" relative="1" as="geometry">
            <mxPoint x="330" y="520.08" as="sourcePoint" />
            <mxPoint x="380" y="520.08" as="targetPoint" />
          </mxGeometry>
        </mxCell>
        <mxCell id="1xQy0t3dI2rBJtauFKF1-3" value="" style="endArrow=none;html=1;" parent="1" edge="1">
          <mxGeometry width="50" height="50" relative="1" as="geometry">
            <mxPoint x="330" y="530.08" as="sourcePoint" />
            <mxPoint x="380" y="530.08" as="targetPoint" />
            <Array as="points">
              <mxPoint x="350" y="530.08" />
            </Array>
          </mxGeometry>
        </mxCell>
        <mxCell id="1xQy0t3dI2rBJtauFKF1-5" value="5v&lt;br style=&quot;font-size: 9px&quot;&gt;gnd" style="text;html=1;strokeColor=none;fillColor=none;align=center;verticalAlign=middle;whiteSpace=wrap;rounded=0;fontSize=9;" parent="1" vertex="1">
          <mxGeometry x="320" y="508" width="40" height="20" as="geometry" />
        </mxCell>
        <mxCell id="1xQy0t3dI2rBJtauFKF1-6" value="" style="rounded=1;whiteSpace=wrap;html=1;fontSize=9;fillColor=none;dashed=1;dashPattern=1 1;" parent="1" vertex="1">
          <mxGeometry x="600" y="193" width="140" height="60" as="geometry" />
        </mxCell>
        <mxCell id="PCadB83_jiJ8bg0ljsQ5-1" value="5v jst" style="rounded=0;whiteSpace=wrap;html=1;fontSize=9;" vertex="1" parent="1">
          <mxGeometry x="240" y="471" width="70" height="30" as="geometry" />
        </mxCell>
        <mxCell id="PCadB83_jiJ8bg0ljsQ5-2" value="" style="endArrow=none;html=1;" edge="1" parent="1">
          <mxGeometry width="50" height="50" relative="1" as="geometry">
            <mxPoint x="290" y="482.0799999999999" as="sourcePoint" />
            <mxPoint x="340" y="482.0799999999999" as="targetPoint" />
          </mxGeometry>
        </mxCell>
        <mxCell id="PCadB83_jiJ8bg0ljsQ5-3" value="" style="endArrow=none;html=1;" edge="1" parent="1">
          <mxGeometry width="50" height="50" relative="1" as="geometry">
            <mxPoint x="290" y="492.0799999999999" as="sourcePoint" />
            <mxPoint x="340" y="492.0799999999999" as="targetPoint" />
            <Array as="points">
              <mxPoint x="310" y="492.08000000000004" />
            </Array>
          </mxGeometry>
        </mxCell>
        <mxCell id="PCadB83_jiJ8bg0ljsQ5-4" value="5v&lt;br style=&quot;font-size: 9px&quot;&gt;gnd" style="text;html=1;strokeColor=none;fillColor=none;align=center;verticalAlign=middle;whiteSpace=wrap;rounded=0;fontSize=9;" vertex="1" parent="1">
          <mxGeometry x="280" y="470" width="40" height="20" as="geometry" />
        </mxCell>
      </root>
    </mxGraphModel>
  </diagram>
</mxfile>
